<?xml version="1.0" standalone="no"?>
<!DOCTYPE svg PUBLIC "-//W3C//DTD SVG 20010904//EN"
 "http://www.w3.org/TR/2001/REC-SVG-20010904/DTD/svg10.dtd">
<svg version="1.0" xmlns="http://www.w3.org/2000/svg"
 width="320.000000pt" height="320.000000pt" viewBox="0 0 320.000000 320.000000"
 preserveAspectRatio="xMidYMid meet">
<metadata>
Created by potrace 1.14, written by Peter Selinger 2001-2017
</metadata>
<g transform="translate(0.000000,320.000000) scale(0.100000,-0.100000)"
fill="#000000" stroke="none">
<path d="M1654 2939 c-3 -6 -17 -14 -31 -20 -13 -5 -22 -13 -19 -18 4 -5 -7
-12 -24 -16 -16 -4 -32 -11 -35 -16 -4 -5 -224 -9 -538 -9 -583 0 -601 -2
-678 -58 -64 -47 -97 -101 -121 -194 -36 -142 -30 -158 238 -665 125 -235 308
-579 405 -763 l178 -335 -52 -6 c-29 -3 -100 -4 -160 -1 -92 4 -107 7 -103 21
2 9 7 26 11 39 10 34 -12 87 -41 101 -36 16 -255 15 -278 -2 -14 -10 -36 -89
-85 -308 -89 -390 -91 -382 102 -387 139 -3 166 5 179 55 l8 32 228 -2 c203
-2 230 -4 246 -19 22 -23 54 -23 88 0 51 33 97 23 181 -42 138 -105 265 -122
410 -55 25 11 29 10 43 -9 22 -32 54 -27 117 18 60 43 77 65 77 100 0 13 4 18
11 15 6 -4 139 -8 296 -10 253 -2 287 -4 295 -19 12 -21 52 -21 84 1 19 12 50
16 116 17 108 1 108 1 133 123 10 48 26 121 36 162 26 101 24 125 -7 150 -25
20 -38 20 -406 20 -209 0 -382 2 -384 4 -3 2 126 251 287 553 160 302 340 642
401 756 113 213 138 278 138 360 0 152 -66 265 -189 322 -44 20 -66 21 -442
26 -374 5 -398 6 -418 24 -12 11 -37 20 -56 20 -19 1 -35 3 -35 6 0 24 -192
51 -206 29z m31 -9 c-3 -5 -11 -10 -16 -10 -6 0 -7 5 -4 10 3 6 11 10 16 10 6
0 7 -4 4 -10z m132 -119 c185 -27 302 -151 319 -341 l7 -74 -31 23 c-18 12
-32 26 -32 31 0 5 -24 23 -52 40 -52 29 -130 41 -142 22 -8 -13 60 -42 97 -42
18 0 42 -7 53 -16 16 -13 17 -15 1 -10 -37 12 -147 28 -159 23 -7 -2 10 -8 37
-11 81 -12 198 -46 217 -63 23 -21 23 -45 -2 -93 -18 -35 -37 -48 -76 -54 -7
-1 -17 -6 -21 -10 -18 -20 63 6 85 27 l24 22 -7 -65 c-20 -205 -56 -298 -167
-429 -67 -79 -88 -94 -88 -64 0 10 -13 27 -30 36 -21 13 -31 28 -36 55 -3 20
-12 66 -19 102 -8 36 -12 67 -10 69 3 2 16 -4 30 -13 41 -27 28 -3 -27 51 -85
81 -114 87 -168 38 -14 -12 -38 -30 -55 -38 l-30 -16 30 -1 c30 0 31 -1 43
-70 7 -39 12 -90 12 -115 0 -39 -3 -45 -24 -51 -16 -4 -34 0 -48 10 -37 26
-74 21 -90 -14 -7 -16 -16 -30 -19 -30 -3 0 -26 18 -50 39 -48 42 -89 109
-110 179 -12 41 -13 42 -32 25 -19 -17 -20 -17 -57 24 -46 52 -63 111 -49 171
12 53 44 118 61 124 22 8 38 -2 38 -24 0 -27 5 -21 14 15 4 19 3 26 -4 22 -5
-3 -10 -2 -10 3 0 6 12 13 27 17 21 5 24 8 12 15 -11 7 -3 21 41 65 30 30 60
53 67 51 6 -3 19 6 27 19 9 14 29 28 44 31 15 4 32 10 38 15 5 4 48 9 95 10
78 2 82 3 54 15 -69 30 -172 7 -224 -50 -14 -14 -29 -26 -35 -26 -6 0 -28 -17
-49 -37 l-38 -38 6 30 c4 17 14 43 21 59 17 36 17 41 1 30 -7 -5 -6 -2 3 6 9
8 28 49 43 90 30 80 75 132 147 167 66 32 178 41 297 24z m-437 -40 c0 -5 -7
-14 -15 -21 -8 -7 -15 -18 -15 -26 0 -11 -82 -14 -448 -16 l-449 -3 -35 -27
c-49 -38 -72 -99 -66 -180 5 -65 28 -111 350 -708 19 -36 58 -108 87 -161 47
-87 53 -96 76 -91 28 5 31 -4 10 -32 -17 -23 -11 -36 17 -36 16 0 19 5 14 24
-4 16 0 28 11 37 23 20 213 60 213 45 0 -18 -22 -46 -35 -46 -8 0 -15 -6 -15
-14 0 -8 -5 -18 -12 -22 -8 -5 -9 -2 -5 9 3 10 2 17 -3 17 -6 0 -11 -4 -11
-10 -1 -5 -2 -15 -3 -21 -1 -14 -83 -40 -102 -32 -8 3 -21 -1 -30 -8 -13 -10
-17 -10 -25 2 -5 8 -9 9 -9 3 0 -18 40 -59 48 -49 4 6 23 11 42 13 19 1 36 7
38 11 2 5 11 7 20 4 12 -3 21 5 29 24 11 27 11 26 8 -13 -8 -89 -17 -115 -44
-127 -47 -21 -54 -44 -13 -49 26 -4 26 -5 5 -14 -21 -9 -21 -9 -3 -44 l18 -35
12 45 c64 251 94 333 132 365 16 14 35 25 41 25 7 0 4 -7 -5 -14 -22 -16 -23
-30 -2 -22 13 5 15 -1 12 -39 -3 -34 -11 -49 -32 -66 -21 -16 -26 -27 -22 -45
3 -12 2 -26 -4 -29 -20 -12 -10 -26 10 -15 18 10 20 8 20 -25 0 -23 4 -34 11
-30 19 13 59 -4 59 -25 0 -12 7 -20 18 -20 32 -1 -20 -24 -58 -26 -35 -1 -35
-1 -7 9 18 8 27 18 27 34 0 42 -45 24 -60 -23 -7 -26 -8 -26 -9 -6 -1 33 -24
22 -37 -17 -6 -19 -18 -38 -27 -43 -10 -5 -17 -20 -17 -33 0 -13 -7 -31 -17
-40 -15 -16 -14 -21 13 -72 31 -59 50 -74 66 -52 6 9 11 10 14 3 5 -12 54 -7
54 6 0 4 11 5 24 3 13 -3 29 2 37 10 7 7 21 12 31 9 10 -2 26 -1 35 3 26 11
53 13 53 3 0 -4 -4 -8 -10 -8 -5 0 -10 -7 -10 -15 0 -11 7 -14 25 -9 32 8 32
-4 0 -16 -21 -8 -24 -14 -18 -42 7 -41 15 -50 36 -42 11 4 17 18 18 43 l1 36
12 -33 c6 -18 15 -30 19 -26 14 15 37 -19 36 -55 l-1 -36 -10 38 c-14 52 -38
49 -40 -5 -1 -37 -2 -39 -5 -10 -2 17 -8 32 -13 32 -26 0 -40 -15 -41 -44 -2
-30 -2 -30 -6 -4 -2 16 -7 28 -9 28 -16 0 -44 -22 -39 -31 4 -5 1 -9 -4 -9 -6
0 -11 4 -11 10 0 6 -9 6 -26 0 -32 -12 -75 -13 -56 -1 10 6 11 17 1 54 -12 50
-12 50 -47 40 -21 -5 -23 -10 -17 -40 3 -19 9 -41 12 -49 4 -11 -4 -14 -33
-14 -31 0 -41 5 -49 23 -10 20 -259 491 -340 642 -34 64 -179 336 -263 495
-27 52 -86 163 -129 245 -98 184 -107 209 -101 294 6 79 28 131 76 177 63 61
79 63 575 63 250 1 447 -3 447 -8z m1367 -3 c69 -17 136 -86 158 -162 34 -118
23 -153 -190 -551 -170 -319 -189 -354 -385 -725 -106 -201 -199 -373 -205
-383 -11 -15 -14 -13 -29 21 -17 37 -17 38 9 85 15 26 25 56 22 69 -4 20 -4
19 -6 -4 -2 -43 -21 -33 -21 11 0 32 -5 43 -29 60 -37 26 -37 26 -36 -5 0 -16
11 -35 30 -50 17 -13 26 -24 20 -24 -5 0 -23 11 -39 24 -23 18 -30 31 -30 61
-1 45 -26 62 -26 18 -1 -22 -3 -25 -10 -12 -5 9 -8 25 -6 36 3 14 -4 25 -20
33 -13 8 -24 20 -24 27 0 12 3 11 16 -1 8 -9 20 -16 25 -16 13 0 6 52 -8 57
-7 3 -13 9 -13 14 0 4 6 6 13 3 10 -3 12 4 9 30 -2 18 1 37 7 40 6 4 11 2 11
-3 0 -6 4 -11 9 -11 6 0 6 12 1 29 -4 16 -5 44 -1 62 l8 34 7 -32 c7 -32 22
-50 33 -40 11 12 -9 66 -28 72 -11 4 -17 11 -13 16 3 5 10 7 15 4 5 -4 9 1 9
9 0 9 -3 16 -7 16 -5 0 -9 11 -9 25 -1 14 2 25 7 25 5 0 9 -7 9 -15 0 -7 8
-19 18 -24 9 -6 12 -11 5 -11 -6 0 -9 -9 -6 -20 7 -25 20 -26 25 -2 10 44 71
-177 93 -333 l7 -50 44 89 c24 48 44 92 44 96 0 16 -42 23 -51 9 -7 -11 -9
-10 -9 4 0 10 7 29 16 42 15 24 15 25 -7 34 l-24 10 23 0 c13 1 20 5 17 11 -8
14 -2 13 45 -6 23 -9 42 -15 44 -13 6 9 79 144 146 274 40 77 76 145 80 150 4
6 74 136 156 290 l149 280 0 75 c0 61 -4 82 -23 113 -45 71 -49 71 -407 77
-299 5 -320 6 -317 23 2 9 -4 20 -13 23 -48 19 15 24 301 24 206 0 331 -4 361
-12z m-1450 -155 c-8 -10 -18 -36 -22 -58 -7 -38 -25 -116 -46 -197 -5 -21
-16 -38 -23 -38 -22 0 -64 -57 -77 -103 -12 -46 -12 -190 1 -182 3 2 14 -9 24
-24 l20 -26 -22 19 c-12 11 -22 15 -22 10 0 -5 -77 -9 -174 -9 -150 0 -173 2
-168 15 4 10 0 9 -14 -4 -18 -18 -19 -18 -22 -2 -4 16 -5 16 -18 -1 -13 -16
-14 -15 -8 12 4 17 21 62 37 100 85 201 254 374 461 471 81 38 96 41 73 17z
m955 -186 c79 -77 135 -151 181 -237 39 -75 83 -197 73 -207 -3 -3 -6 1 -6 10
0 15 -15 17 -128 17 -78 0 -132 -4 -139 -11 -7 -7 -9 -2 -5 18 5 25 4 26 -10
13 -8 -9 -18 -22 -21 -30 -4 -8 -5 24 -2 72 5 80 3 90 -16 109 -19 19 -21 28
-14 78 7 55 7 100 1 171 -4 38 2 60 14 60 4 0 36 -28 72 -63z m-82 -282 c0
-14 -4 -25 -10 -25 -5 0 -10 11 -10 25 0 14 5 25 10 25 6 0 10 -11 10 -25z
m-10 -143 c-11 -98 -60 -176 -91 -145 -8 8 -7 19 7 42 10 17 22 31 27 31 4 0
7 8 5 18 -2 9 2 16 9 15 7 -2 10 3 7 11 -3 8 2 42 12 77 22 80 35 54 24 -49z
m-450 58 c31 -17 54 -120 85 -380 9 -75 40 -195 72 -282 24 -63 28 -89 29
-193 0 -66 6 -133 12 -148 7 -16 12 -33 12 -38 0 -5 -43 -9 -95 -9 -91 0 -95
-1 -112 -26 -16 -25 -16 -29 0 -75 10 -28 15 -59 11 -74 -6 -24 -8 -25 -23
-10 -11 9 -37 15 -68 15 -47 0 -51 2 -63 31 -10 22 -10 33 -1 42 8 8 11 8 11
-2 0 -7 5 -9 10 -6 21 13 9 26 -19 20 -26 -5 -33 0 -80 55 -28 34 -51 65 -51
69 0 4 9 16 20 26 11 10 20 22 20 27 0 5 -11 -3 -24 -17 l-25 -26 -17 27 c-17
25 -17 27 1 41 19 13 18 13 -5 11 -22 -3 -28 5 -55 72 -37 91 -51 116 -81 153
-28 33 -31 73 -7 99 22 24 30 23 82 -12 59 -40 72 -27 22 24 -47 48 -51 76
-16 111 33 34 53 31 97 -12 45 -44 51 -29 8 20 -36 41 -36 46 -9 81 33 42 70
35 129 -23 49 -47 51 -47 63 -27 14 25 12 246 -3 326 -8 40 -6 59 5 86 14 35
32 42 65 24z m-371 -259 c17 -21 45 -48 64 -61 l34 -23 -24 -36 c-13 -19 -37
-41 -53 -47 -29 -12 -57 -54 -63 -93 -5 -34 -16 -35 -28 -5 -14 37 -24 282
-14 360 l7 59 23 -58 c13 -32 37 -75 54 -96z m671 -90 c-15 -93 -39 -160 -84
-231 l-34 -54 -20 65 c-11 36 -23 86 -27 110 -7 44 -6 46 32 71 21 14 61 50
88 80 28 30 52 51 54 45 2 -5 -2 -44 -9 -86z m-1341 -769 c7 -13 2 -52 -16
-133 -14 -63 -27 -115 -28 -117 -2 -2 -20 14 -39 35 -32 33 -36 43 -31 74 4
34 3 36 -23 35 -30 -1 -31 -6 -86 -254 l-23 -102 28 0 c29 0 33 6 45 73 3 20
9 37 12 37 16 0 72 -67 72 -86 0 -33 -22 -127 -33 -142 -11 -14 -204 -16 -227
-2 -19 12 -16 37 49 320 34 145 61 268 61 272 0 5 52 8 115 8 100 0 115 -2
124 -18z m1380 -1 c8 -14 1 -59 -25 -172 -28 -123 -40 -159 -61 -181 -25 -26
-26 -30 -21 -127 l5 -99 -48 -36 c-27 -20 -50 -36 -52 -36 -3 0 -7 51 -11 113
-4 61 -9 135 -12 163 l-6 51 45 33 c40 28 46 38 56 88 6 32 14 67 18 80 5 22
3 23 -28 20 -33 -3 -33 -3 -54 -90 -11 -48 -26 -93 -32 -100 -7 -6 -13 -37
-14 -68 0 -30 -11 -93 -22 -140 l-22 -85 -36 -1 c-20 -1 -42 1 -47 5 -7 4 8
89 44 251 53 233 57 264 38 328 l-6 22 140 0 c128 0 142 -2 151 -19z m-1269
-160 c0 -26 -25 -117 -34 -123 -6 -4 1 -8 16 -8 25 0 29 5 35 43 4 23 6 47 4
52 -15 44 -14 45 26 45 22 0 42 -2 45 -5 4 -5 -14 -94 -67 -322 -4 -18 -12
-23 -35 -23 -33 0 -33 -4 -8 94 5 22 6 41 1 45 -5 3 -15 21 -22 39 -8 18 -16
31 -18 29 -2 -3 1 -15 7 -28 7 -18 6 -43 -8 -99 -16 -69 -20 -75 -45 -78 -34
-4 -34 -4 3 156 19 81 28 142 24 161 -6 31 -6 31 35 31 22 0 41 -4 41 -9z
m250 -23 c0 -18 -7 -96 -15 -173 -8 -77 -15 -141 -15 -142 0 -2 -12 -3 -27 -3
-25 0 -30 6 -45 53 -22 67 -22 67 2 67 11 0 20 6 20 14 0 7 2 29 5 47 5 34 5
34 -10 -6 -16 -40 -33 -58 -47 -49 -11 7 -10 -1 3 -29 8 -18 7 -32 -5 -60 -13
-32 -20 -37 -47 -37 -21 0 -30 4 -27 13 3 6 31 85 63 175 l58 162 44 0 c42 0
43 -1 43 -32z m208 19 c13 -15 -23 -184 -44 -208 -9 -9 -14 -39 -14 -75 0 -56
-2 -61 -30 -77 l-30 -18 -1 38 c0 44 -16 128 -18 98 -1 -11 -6 -37 -12 -57 -9
-33 -14 -38 -40 -38 -25 0 -29 3 -24 23 43 173 62 273 55 293 -5 12 -6 25 -3
28 12 12 150 6 161 -7z m96 5 c2 -4 -9 -65 -25 -136 -16 -71 -27 -131 -24
-134 2 -3 7 3 11 12 4 10 18 16 36 16 22 0 29 -4 25 -14 -3 -8 -9 -31 -13 -50
l-6 -36 -70 0 c-61 0 -69 2 -64 18 3 9 19 75 35 145 21 90 27 136 21 152 -5
13 -6 26 -3 29 9 9 71 7 77 -2z m326 -10 c0 -9 -5 -34 -11 -54 -9 -33 -14 -38
-41 -38 -23 0 -29 4 -24 15 3 8 1 15 -4 15 -6 0 -10 -6 -10 -14 0 -8 -3 -21
-6 -30 -5 -13 1 -16 25 -16 17 0 31 -3 31 -7 0 -13 -53 -63 -67 -63 -7 0 -13
-6 -13 -12 0 -7 -3 -24 -6 -38 -5 -23 -4 -24 9 -7 8 9 26 17 41 17 21 0 26 -4
22 -17 -2 -10 -7 -33 -11 -50 l-7 -33 -68 0 c-60 0 -68 2 -64 18 2 9 18 75 34
146 17 71 28 138 24 149 -10 31 -17 9 -55 -160 -33 -153 -33 -153 -61 -153
-15 0 -28 5 -28 11 0 6 14 70 30 141 19 84 28 143 24 164 l-6 33 121 0 c109 1
121 -1 121 -17z m577 2 c5 -14 -24 -162 -58 -296 l-10 -38 -69 0 c-63 0 -70 2
-70 19 0 11 16 89 35 172 19 84 35 154 35 156 0 2 29 3 65 3 51 0 67 -4 72
-16z m178 6 c8 -13 -15 -130 -26 -130 -4 0 -16 14 -26 30 -9 17 -23 30 -30 30
-8 0 -16 -13 -19 -30 -5 -21 -12 -30 -25 -30 -11 0 -19 -3 -19 -8 0 -4 20 -6
43 -4 40 3 45 1 56 -25 10 -24 9 -43 -4 -101 l-17 -72 -68 0 c-38 0 -71 3 -73
8 -4 5 57 288 72 340 3 7 131 0 136 -8z m343 -3 c12 -15 -31 -200 -47 -205 -6
-2 -11 -30 -11 -67 0 -57 -3 -66 -27 -85 l-28 -22 -7 39 c-4 21 -7 64 -7 96
-1 49 3 61 24 80 30 27 46 97 21 97 -10 0 -19 -15 -26 -42 -6 -24 -15 -51 -20
-60 -6 -10 -10 -32 -10 -48 0 -17 -5 -51 -11 -76 -10 -39 -14 -44 -40 -44 -16
0 -29 3 -29 8 1 4 16 71 34 149 24 104 30 146 23 159 -9 16 -12 12 -21 -26 -9
-38 -15 -45 -38 -48 -21 -2 -28 1 -28 13 0 24 -17 9 -22 -20 -5 -23 -2 -25 31
-25 l36 -1 -46 -42 c-41 -38 -70 -97 -48 -97 5 0 9 7 9 15 0 10 10 15 30 15
33 0 35 -6 19 -62 l-10 -38 -64 0 c-36 0 -65 4 -65 9 0 5 14 69 31 142 19 84
28 145 24 166 l-6 32 160 0 c112 0 162 -3 169 -12z m178 -2 c8 -20 -18 -126
-31 -127 -5 0 -16 14 -25 31 -8 17 -20 31 -26 31 -26 0 -20 -29 12 -70 19 -23
34 -47 34 -52 0 -5 -7 -40 -16 -79 l-16 -69 -68 0 c-38 0 -71 3 -73 8 -3 4 2
38 10 75 l15 68 24 -22 c13 -12 24 -31 24 -41 0 -10 7 -18 15 -18 25 0 17 39
-16 85 -34 47 -35 65 -9 158 l11 37 65 0 c48 0 66 -4 70 -15z m-1271 -213
c-12 -13 -24 22 -12 37 10 12 13 11 15 -8 2 -13 1 -26 -3 -29z m-49 -186 c1 0
4 -16 8 -35 l6 -34 -52 6 c-52 7 -138 43 -145 62 -2 6 32 9 89 6 51 -1 93 -4
94 -5z"/>
<path d="M1538 2513 c12 -2 32 -2 45 0 12 2 2 4 -23 4 -25 0 -35 -2 -22 -4z"/>
<path d="M1628 2503 c7 -3 16 -2 19 1 4 3 -2 6 -13 5 -11 0 -14 -3 -6 -6z"/>
<path d="M1687 2485 c23 -10 32 -21 35 -42 2 -23 4 -25 10 -10 9 22 -31 67
-59 67 -11 -1 -6 -6 14 -15z"/>
<path d="M1835 2449 c-4 -5 -21 -8 -38 -5 l-32 6 28 -11 c24 -10 27 -16 27
-59 0 -42 4 -52 35 -79 47 -41 57 -40 17 2 -40 41 -54 114 -27 140 9 9 12 17
6 17 -5 0 -13 -5 -16 -11z"/>
<path d="M1510 2405 l-35 -13 53 0 c29 0 55 4 58 10 3 5 15 6 27 3 17 -5 19
-4 7 4 -19 14 -66 12 -110 -4z"/>
<path d="M1401 2390 c-1 -18 7 -30 34 -50 18 -13 18 -12 -1 10 -12 14 -24 32
-27 40 -5 13 -5 13 -6 0z"/>
<path d="M2040 2375 c0 -5 5 -17 10 -25 5 -8 10 -10 10 -5 0 6 -5 17 -10 25
-5 8 -10 11 -10 5z"/>
<path d="M1674 2348 l-19 -23 23 19 c21 18 27 26 19 26 -2 0 -12 -10 -23 -22z"/>
<path d="M1870 2360 c0 -5 5 -10 10 -10 6 0 10 5 10 10 0 6 -4 10 -10 10 -5 0
-10 -4 -10 -10z"/>
<path d="M1922 2348 c4 -11 68 -31 68 -22 0 4 -57 34 -65 34 -4 0 -5 -6 -3
-12z"/>
<path d="M1468 2323 c7 -3 16 -2 19 1 4 3 -2 6 -13 5 -11 0 -14 -3 -6 -6z"/>
<path d="M1575 2320 l-60 -7 55 -1 c30 -1 62 3 70 8 8 5 11 9 5 8 -5 -1 -37
-4 -70 -8z"/>
<path d="M1186 2261 c-19 -21 -38 -119 -25 -127 5 -3 9 11 9 30 0 40 16 87 33
98 6 4 9 9 6 13 -3 3 -13 -3 -23 -14z"/>
<path d="M1622 2238 c-7 -7 -12 -21 -12 -32 0 -17 3 -16 15 8 17 32 15 42 -3
24z"/>
<path d="M1675 2200 c-8 -12 20 -24 35 -15 6 3 8 11 5 16 -8 12 -32 12 -40 -1z"/>
<path d="M1220 2181 c-5 -11 -10 -27 -10 -35 0 -9 -5 -16 -10 -16 -6 0 -5 -8
2 -20 7 -11 16 -16 19 -12 6 6 17 102 12 102 -1 0 -7 -9 -13 -19z"/>
<path d="M1777 2184 c-9 -10 2 -24 19 -24 8 0 14 7 14 15 0 15 -21 21 -33 9z"/>
<path d="M1841 2147 c-13 -21 -12 -21 5 -5 10 10 16 20 13 22 -3 3 -11 -5 -18
-17z"/>
<path d="M1805 2080 c3 -5 8 -10 11 -10 2 0 4 5 4 10 0 6 -5 10 -11 10 -5 0
-7 -4 -4 -10z"/>
<path d="M1187 1543 c-4 -3 -7 -11 -7 -17 0 -6 5 -5 12 2 6 6 9 14 7 17 -3 3
-9 2 -12 -2z"/>
<path d="M1156 1513 c-6 -14 -5 -15 5 -6 7 7 10 15 7 18 -3 3 -9 -2 -12 -12z"/>
<path d="M990 1499 c-10 -18 -9 -20 12 -17 12 2 24 11 26 21 5 24 -25 22 -38
-4z"/>
<path d="M926 1494 c-9 -23 -8 -24 14 -24 10 0 24 9 30 20 9 17 8 20 -14 20
-13 0 -27 -7 -30 -16z"/>
<path d="M1175 1499 c-11 -17 1 -21 15 -4 8 9 8 15 2 15 -6 0 -14 -5 -17 -11z"/>
<path d="M1140 1469 c0 -5 5 -7 10 -4 6 3 10 8 10 11 0 2 -4 4 -10 4 -5 0 -10
-5 -10 -11z"/>
<path d="M1137 1433 c-4 -3 -7 -13 -7 -22 1 -13 3 -13 11 2 11 19 8 33 -4 20z"/>
<path d="M1024 1412 c-7 -4 -16 -24 -22 -44 -9 -35 -9 -38 9 -38 23 0 32 17
27 59 -2 20 -7 28 -14 23z"/>
<path d="M963 1398 c-34 -9 -41 -25 -23 -59 17 -31 36 -22 49 22 7 23 11 42 9
43 -2 2 -18 -1 -35 -6z"/>
<path d="M1125 1369 c-4 -6 -5 -12 -2 -15 2 -3 7 2 10 11 7 17 1 20 -8 4z"/>
<path d="M1157 1356 c-19 -19 -23 -56 -7 -56 12 0 32 48 27 63 -1 5 -11 2 -20
-7z"/>
<path d="M1115 1326 c-3 -9 -7 -23 -10 -31 -2 -8 -1 -15 4 -15 10 0 25 50 17
58 -3 2 -8 -3 -11 -12z"/>
<path d="M1084 1306 c-3 -8 -4 -23 -2 -33 3 -11 6 -6 9 15 6 34 2 42 -7 18z"/>
<path d="M1103 1250 c-12 -28 -8 -39 8 -23 6 6 9 19 6 29 -3 17 -5 16 -14 -6z"/>
<path d="M1072 1220 c0 -14 2 -19 5 -12 2 6 2 18 0 25 -3 6 -5 1 -5 -13z"/>
<path d="M1061 1164 c0 -11 3 -14 6 -6 3 7 2 16 -1 19 -3 4 -6 -2 -5 -13z"/>
<path d="M1323 1023 c-7 -2 -13 -12 -13 -20 0 -10 6 -13 16 -9 9 3 20 6 25 6
5 0 9 7 9 15 0 15 -14 18 -37 8z"/>
<path d="M1251 1001 c-7 -5 -11 -13 -8 -19 9 -13 59 -2 54 12 -5 14 -28 18
-46 7z"/>
<path d="M1193 993 c-29 -6 -19 -33 13 -33 17 0 24 6 24 20 0 11 -3 19 -7 19
-5 -1 -18 -4 -30 -6z"/>
<path d="M1343 982 c-26 -4 -29 -22 -12 -71 8 -22 16 -30 26 -27 8 3 17 6 19
6 6 0 3 63 -4 80 -4 9 -17 14 -29 12z"/>
<path d="M1140 971 c0 -6 5 -13 10 -16 6 -3 10 1 10 9 0 9 -4 16 -10 16 -5 0
-10 -4 -10 -9z"/>
<path d="M1272 962 c-16 -2 -21 -9 -18 -20 2 -9 7 -32 11 -49 7 -34 12 -37 39
-27 19 7 20 39 3 74 -9 18 -18 24 -35 22z"/>
<path d="M2065 1488 c9 -39 13 -48 25 -48 4 0 3 18 -2 40 -12 48 -33 55 -23 8z"/>
<path d="M2022 1424 c2 -15 12 -33 24 -40 20 -14 20 -13 16 18 -7 49 -46 70
-40 22z"/>
<path d="M2230 1421 c-14 -27 -13 -28 17 -35 17 -5 29 -3 34 5 9 16 4 26 -21
39 -15 8 -21 6 -30 -9z"/>
<path d="M2080 1397 c0 -25 6 -39 19 -46 17 -10 18 -8 11 25 -12 54 -30 66
-30 21z"/>
<path d="M1990 1360 c0 -16 5 -30 10 -30 6 0 10 14 10 30 0 17 -4 30 -10 30
-5 0 -10 -13 -10 -30z"/>
<path d="M2030 1342 c0 -27 26 -62 45 -62 12 0 -3 72 -17 82 -22 13 -28 9 -28
-20z"/>
<path d="M2095 1300 c7 -44 20 -70 35 -70 13 0 -7 82 -25 98 -16 16 -17 14
-10 -28z"/>
<path d="M1992 1290 c2 -18 9 -35 16 -38 18 -6 15 43 -4 59 -14 11 -15 9 -12
-21z"/>
<path d="M2030 1265 c0 -24 32 -64 53 -65 14 0 7 47 -10 62 -35 30 -43 30 -43
3z"/>
<path d="M2109 1197 c8 -37 31 -49 31 -15 0 13 -8 28 -19 35 -17 10 -18 9 -12
-20z"/>
<path d="M1658 1530 c2 -16 6 -30 8 -30 2 0 4 14 4 30 0 17 -4 30 -8 30 -5 0
-7 -13 -4 -30z"/>
<path d="M1520 1483 c0 -4 5 -15 10 -23 8 -13 10 -13 10 2 0 9 -4 20 -10 23
-5 3 -10 3 -10 -2z"/>
<path d="M1516 1004 c-26 -19 -17 -26 13 -10 13 7 20 16 15 19 -5 3 -18 -1
-28 -9z"/>
<path d="M365 578 c-12 -36 -43 -193 -39 -200 3 -4 51 -8 108 -8 l103 0 15 71
c15 70 15 72 -8 98 -25 28 -25 28 -42 -39 -7 -30 -13 -35 -41 -38 -54 -5 -60
1 -50 50 5 24 12 51 15 61 4 14 -1 17 -26 17 -17 0 -33 -6 -35 -12z"/>
<path d="M1734 563 c-3 -16 -12 -53 -19 -83 -29 -123 -30 -112 6 -108 31 3 33
5 50 78 10 41 18 90 19 108 0 28 -3 32 -25 32 -19 0 -26 -7 -31 -27z"/>
<path d="M1844 533 c3 -32 8 -93 12 -136 l6 -78 31 24 32 25 0 111 0 111 -43
0 -43 0 5 -57z"/>
<path d="M695 578 c-7 -20 -24 -102 -25 -115 0 -7 4 -13 9 -13 5 0 15 26 21
57 7 32 15 63 17 70 3 7 0 13 -6 13 -7 0 -14 -6 -16 -12z"/>
<path d="M780 538 c-6 -29 -14 -61 -17 -72 -3 -12 -1 -17 8 -14 13 4 38 84 39
121 0 37 -19 15 -30 -35z"/>
<path d="M970 569 c0 -13 -8 -23 -20 -26 -12 -3 -19 -8 -18 -12 2 -3 10 -23
18 -43 23 -62 34 -48 43 55 3 35 1 47 -9 47 -8 0 -14 -9 -14 -21z"/>
<path d="M858 500 c-13 -40 -14 -50 -3 -50 18 0 39 65 28 85 -7 12 -13 3 -25
-35z"/>
<path d="M1130 660 c-7 -28 -16 -53 -21 -56 -5 -3 -9 -15 -8 -27 0 -15 2 -17
6 -7 3 8 16 26 28 40 13 14 28 42 33 63 9 33 8 37 -8 37 -13 0 -21 -13 -30
-50z"/>
<path d="M1060 533 c-7 -32 -15 -64 -18 -72 -3 -8 0 -12 8 -9 13 4 39 84 40
121 0 38 -18 14 -30 -40z"/>
<path d="M1131 533 c1 -32 4 -69 8 -83 11 -40 25 -5 22 57 -1 31 3 60 9 69 10
12 8 14 -14 14 -25 0 -26 -2 -25 -57z"/>
<path d="M1250 578 c-1 -7 -7 -39 -15 -71 l-13 -58 49 2 c46 2 50 5 57 33 9
34 -5 49 -20 22 -10 -18 -33 -21 -43 -7 -3 6 -1 28 4 50 7 33 6 41 -5 41 -8 0
-14 -6 -14 -12z"/>
<path d="M1415 578 c-7 -20 -24 -102 -25 -115 0 -7 4 -13 9 -13 7 0 41 112 41
135 0 10 -21 5 -25 -7z"/>
<path d="M1505 578 c-11 -35 -25 -95 -25 -110 0 -15 9 -18 45 -18 42 0 45 2
53 33 9 35 -4 51 -20 23 -10 -18 -33 -21 -43 -7 -3 6 -1 28 4 50 5 25 5 41 0
41 -5 0 -11 -6 -14 -12z"/>
<path d="M2121 618 c-25 -109 -25 -108 -8 -108 8 0 20 29 31 78 10 42 20 87
23 100 4 15 1 22 -10 22 -10 0 -21 -27 -36 -92z"/>
<path d="M2058 524 c-18 -75 -16 -77 53 -72 42 3 43 4 56 53 15 61 16 85 3 85
-5 0 -10 -6 -10 -12 0 -7 -5 -30 -11 -50 -9 -33 -14 -38 -40 -38 l-31 0 7 50
c10 72 -8 62 -27 -16z"/>
<path d="M2283 555 c-9 -40 -8 -45 7 -45 22 0 32 51 15 74 -10 13 -13 8 -22
-29z"/>
<path d="M2244 563 c-3 -16 -10 -44 -15 -63 -5 -19 -9 -38 -9 -41 0 -4 26 -6
57 -5 l56 1 13 55 c17 73 17 80 -4 80 -15 0 -18 -6 -14 -29 6 -41 -13 -71 -45
-71 -25 0 -25 1 -19 50 7 54 -9 72 -20 23z"/>
<path d="M2421 552 c-6 -21 -14 -53 -17 -71 l-7 -32 48 3 c44 3 49 6 56 32 10
37 2 47 -16 23 -13 -19 -51 -19 -49 -1 1 5 5 26 8 47 9 49 -10 49 -23 -1z"/>
<path d="M2577 527 c-20 -79 -20 -80 -5 -75 15 5 36 99 28 123 -5 13 -12 -1
-23 -48z"/>
<path d="M2651 510 c2 -98 22 -105 27 -10 2 36 8 70 14 77 8 10 4 13 -16 13
l-27 0 2 -80z"/>
<path d="M2843 563 c15 -34 -5 -73 -38 -73 -21 0 -25 5 -25 29 0 40 -16 48
-23 12 -3 -16 -9 -41 -13 -55 l-6 -27 58 3 59 3 12 50 c17 77 16 85 -11 83
-21 -2 -22 -5 -13 -25z"/>
</g>
</svg>
